<?xml version="1.0"?><!DOCTYPE svg  PUBLIC '-//W3C//DTD SVG 1.1//EN'  'http://www.w3.org/Graphics/SVG/1.1/DTD/svg11.dtd'><svg height="512px" style="enable-background:new 0 0 512 512;" version="1.1" viewBox="0 0 512 512" width="512px" xml:space="preserve" xmlns="http://www.w3.org/2000/svg" xmlns:xlink="http://www.w3.org/1999/xlink"><g id="_x33_44-twitter_t"><g><g><g id="_x32_6-twitter_x2C__tweet_9_"><g><g><path d="M370.688,370.994H256c-31.625,0-57.342-25.784-57.342-57.496v-28.756h172.03        c31.654,0,57.341-25.757,57.341-57.495c0-31.74-25.688-57.5-57.341-57.5h-172.03V83.501c0-31.738-25.69-57.5-57.347-57.5        c-31.651,0-57.342,25.762-57.342,57.5v229.997c0,95.133,77.157,172.501,172.032,172.501h114.689        c31.651,0,57.339-25.765,57.339-57.504C428.029,396.759,402.342,370.994,370.688,370.994L370.688,370.994z" style="fill:#4AA0EC;"/></g></g></g></g></g></g><g id="Layer_1"/></svg>